{"title":"Short Circut 2 DVD NORARS","uid":5227329,"size":734093312,"categoryP":"video","categoryS":"movies","magnet":"?xt=urn:btih:2251d093ef317787ca072c1dfb0d567b6d99a268&amp;dn=Short+Circut+2+DVD+NORARS&amp;tr=udp%3A%2F%2Ftracker.openbittorrent.com%3A80&amp;tr=udp%3A%2F%2Fopen.demonii.com%3A1337&amp;tr=udp%3A%2F%2Ftracker.coppersurfer.tk%3A6969&amp;tr=udp%3A%2F%2Fexodus.desync.com%3A6969","seeders":1,"leechers":0,"uploader":"IwannaFan2","files":-1,"time":1261177190,"description":"Audio and visual quality are great.\nhttp://www.imdb.com/title/tt0096101/\n\nFormat/Info                      : Audio Video Interleave\nFile size                        : 700 MiB\nDuration                         : 1h 45mn\nOverall bit rate                 : 924 Kbps\nWriting application              : VirtualDubMod 1.4.13\nWriting library                  : VirtualDub build 14328/release\n\nVideo\nID                               : 0\nFormat                           : MPEG-4 Visual\nFormat profile                   : Simple@L3\nFormat settings, BVOP            : No\nFormat settings, QPel            : No\nFormat settings, GMC             : No warppoints\nFormat settings, Matrix          : Default (H.263)\nCodec ID                         : XVID\nCodec ID/Hint                    : XviD\nDuration                         : 1h 45mn\nBit rate                         : 782 Kbps\nWidth                            : 528 pixels\nHeight                           : 288 pixels\nDisplay aspect ratio             : 16:9\nFrame rate                       : 25.000 fps\nResolution                       : 24 bits\nColorimetry                      : 4:2:0\nScan type                        : Progressive\nBits/(Pixel*Frame)               : 0.206\nStream size                      : 592 MiB (85%)\nWriting library                  : XviD 0.0.09 (UTC 2003-03-25)\n\nAudio\nID                               : 1\nFormat                           : MPEG Audio\nFormat version                   : Version 1\nFormat profile                   : Layer 3\nFormat_Settings_Mode             : Joint stereo / MS Stereo\nCodec ID                         : 55\nCodec ID/Hint                    : MP3\nDuration                         : 1h 45mn\nBit rate mode                    : Variable\nBit rate                         : 129 Kbps\nNominal bit rate                 : 128 Kbps\nChannel(s)                       : 2 channels\nSampling rate                    : 48.0 KHz\nResolution                       : 16 bits\nStream size                      : 98.0 MiB (14%)\nAlignment                        : Aligned on interleaves\nInterleave, duration             : 24 ms (0.60 video frame)\nInterleave, preload duration     : 136 ms\nWriting library                  : LAME3.92 \nEncoding settings                : -m j -V 4 -q 2 -lowpass 17.5 --abr 128","torrent":{"xt":"urn:btih:2251d093ef317787ca072c1dfb0d567b6d99a268","amp;dn":"Short+Circut+2+DVD+NORARS","amp;tr":["udp%3A%2F%2Ftracker.openbittorrent.com%3A80","udp%3A%2F%2Fopen.demonii.com%3A1337","udp%3A%2F%2Ftracker.coppersurfer.tk%3A6969","udp%3A%2F%2Fexodus.desync.com%3A6969"],"infoHash":"2251d093ef317787ca072c1dfb0d567b6d99a268","infoHashBuffer":{"type":"Buffer","data":[34,81,208,147,239,49,119,135,202,7,44,29,251,13,86,123,109,153,162,104]},"announce":[],"urlList":[]}}